<svg width="435" height="489" xmlns="http://www.w3.org/2000/svg"><g id="Page-1" stroke="none" stroke-width="1" fill="none" fill-rule="evenodd"><g id="realworld"><g id="Group" transform="matrix(1 0 0 -1 0 488.5)"><path d="M341 487c-16-3.8-25.9-9.4-38-21.5-16.3-16.3-23-32.5-23-55.3.1-13 2.2-22.2 7.9-33.6 8.3-16.8 24-31.2 41.1-37.8 11.6-4.5 13.3-4.8 28.5-4.8 15.8 0 21 1.1 33.4 6.7 15 7 29.9 21.9 36.9 36.9 5.6 12.4 6.7 17.6 6.7 33.4 0 12.8-.3 16-2.2 21.5-3.6 10.7-5.2 13.9-7.8 15.6-2.3 1.5-2.7 1.5-4.8.1-2.2-1.4-16-21.2-38.6-54.9-5.9-8.9-10.1-14.3-12.1-15.3-4-2-14.5-1.9-18.9.3-2.4 1.2-6 5.3-12 13.7-4.6 6.6-11.7 16.7-15.8 22.4-4 5.7-7.3 10.9-7.3 11.6 0 2.8 17 3.6 20.8.9 1.2-.8 6.1-7.1 10.9-14 4.8-6.9 9.5-13 10.5-13.5 2.4-1.3 4.9-.4 7 2.5 3.5 4.8 35.7 60.6 36.9 63.9 2.6 7.4-3 13.4-16.7 18.2-13.2 4.6-31.4 5.8-43.4 3z" id="Path" fill="#95B739"/><path d="M19.3 417.5C13 416 6.1 410.4 2.7 404 .5 400.1.5 399.3.5 350.5c0-55.4 0-55.8 7-61.9 5.2-4.6 9.2-5.3 31.7-5.8 22.7-.6 26.9-.2 29.9 2.8 2.9 2.9 2.3 6.9-2.2 17-3.6 8-4.1 9.9-4.1 16.7 0 10.6 2.8 17.5 9.9 25.2 17.9 19.4 49.6 17.4 64.6-4 7.5-10.7 8.6-23.8 3.3-38.7-2.9-8-3.1-10.1-1.5-13.6 2.4-5.3 1.4-5.2 58.9-5.7 39.7-.4 54.1-.8 55.6-1.7 3.3-1.9 7.1-6.8 8.4-10.9 1.9-5.7.7-15.7-3.4-27.3-5-14.4-4.6-23.3 1.5-30.9 5.1-6.6 14.5-9.3 23.2-6.8 7.1 2.1 10.4 4.8 13.3 11 3.5 7.5 3.2 14.4-1.2 28-4.7 14.4-4.9 21.9-.9 30.1 4.1 8.5 4 8.5 39 8.5h29.6l2.4 2.4c5.3 5.3 5.7 18.2.6 23.7-2.4 2.6-3.4 2.9-13.4 3.9-23.5 2.3-44.3 12.6-62.2 30.6-12.2 12.3-21.8 28.7-25.1 42.9-4.4 18.9-5.7 22.6-8.8 26-5.9 6.2-.6 5.9-122.6 6.1-61.3.1-113-.1-114.7-.6z" id="Path" fill="#C26FC6"/><path d="M95.6 338c-12.5-4.4-17.1-18.9-11.1-35.5 5.5-15.7 6.2-27 1.9-35.2-3-5.7-3.7-5.8-46.2-5.8-34.6 0-39.1-.2-39.6-1.6-.3-.9-.6-22.3-.6-47.7 0-49.7.4-53.4 5.2-60.3 6.5-9.1 11.8-10.7 36.3-11.2 23.1-.4 26.9.2 29 5 1.5 3.7.7 7.6-3.7 16.2-8.1 16-2.8 36.4 12.2 46.6 20.6 14 48.3 8.2 59.9-12.4 5.9-10.5 6.4-20.8 1.7-34.8-1.4-4.2-2.6-9-2.6-10.6 0-4 3.3-7.9 7.8-9.2 2.3-.6 22.8-1 54.5-1 58 0 56.4.2 59.8-7.5 3.3-7.5 2.8-17.6-1.7-31-2.1-6.1-3.7-13-3.7-15.5 0-14.4 8.9-24 22.4-24 11.1 0 18.6 5.7 21.7 16.6 1.9 6.4 1.5 9.1-2.9 22.4-3.6 11.1-4 13.3-3.7 20 .4 8.8 2.8 14.4 7.2 17.1 2.7 1.7 5.3 1.9 21.4 1.9 29.1 0 37.4 3 43.7 15.5l3 6 .3 47.5c.2 26.1 0 48.5-.3 49.8l-.6 2.4-23.7-.4c-21.7-.3-24-.5-27.2-2.3-5.4-3.2-6-7.4-2.6-17.3 6.4-18.9 3.8-32.9-8.5-45-17.3-16.9-48.6-13.9-62.3 6-7.9 11.6-8.7 24.8-2.3 38.3 3.5 7.3 4.7 13.6 2.9 16-2.9 4-2.3 4-60.4 4.5l-56 .5-2.8 3.2c-6.3 7.1-6.8 18-1.4 34.4 4.3 13.1 4.7 20.1 1.7 27-4.7 10.6-17.1 15.6-28.7 11.4z" id="Path" fill="#914B99"/><path d="M95.6 196.5c-13.5-5.3-17.3-18.6-10.7-37.5 5.6-16 5.5-28.8-.3-35l-3.3-3.5H41.8c-29.3 0-39.7-.3-40.6-1.2-.9-.9-1.2-13.4-1.2-50.1V20.4L2.6 15C5.3 9.2 8.8 5.7 15.4 2.2L19.5 0h329l4.2 2.3c5.4 2.8 10.4 7.8 12.9 12.8 1.8 3.7 1.9 6.8 2.2 53.4.2 45.8.1 49.6-1.5 50.7-2.1 1.6-32.4 1.8-42.6.3-7.6-1.1-10.1-2.3-11.6-5.7-1.7-3.6-1.3-6.6 1.6-15 3.6-10.3 3.8-23.1.4-30.8-6.6-14.8-20.5-23.5-37.5-23.5-15 0-26.8 6-34.5 17.6-7.4 11.2-8 23.8-1.7 37 4.2 9.1 4.9 14.3 2.2 17.3-3.5 3.9-8.6 4.2-62.6 4-41.5-.1-52 .1-53.7 1.2-1.2.7-3.2 3.1-4.5 5.3-2 3.5-2.3 5.5-2.3 13.6 0 8.3.4 10.7 3.5 19 2.6 7.3 3.4 10.9 3.3 15.5-.2 10.8-5 18.1-13.9 21.4-6.7 2.6-10.4 2.6-16.8.1z" id="Path" fill="#6F3875"/></g></g></g></svg>